<svg xmlns="http://www.w3.org/2000/svg" viewBox="0 0 299.98 52.17"><defs><style>.cls-1{fill:#1677bd;}</style></defs><g id="Layer_2" data-name="Layer 2"><g id="Layer_1-2" data-name="Layer 1"><path class="cls-1" d="M111.43,52.17h0A5.21,5.21,0,0,1,106.22,47V10.58a5.22,5.22,0,0,1,5.21-5.22h0a5.22,5.22,0,0,1,5.21,5.22v13a.69.69,0,0,0,.7.69h16.73a.7.7,0,0,0,.7-.69v-13A5.22,5.22,0,0,1,140,5.36h0a5.22,5.22,0,0,1,5.21,5.22V47A5.21,5.21,0,0,1,140,52.17h0A5.21,5.21,0,0,1,134.77,47V33.91a.7.7,0,0,0-.7-.69H117.34a.69.69,0,0,0-.7.69V47A5.21,5.21,0,0,1,111.43,52.17Z"/><path class="cls-1" d="M157.88,5.36h0a5.22,5.22,0,0,1,5.21,5.22V47a5.21,5.21,0,0,1-5.21,5.21h0A5.21,5.21,0,0,1,152.67,47V10.58A5.22,5.22,0,0,1,157.88,5.36Z"/><path class="cls-1" d="M245.48,5.36h0a4.84,4.84,0,0,0-3.85,1.91L231.32,20.79l-2.69,3.53V10.58a5.22,5.22,0,0,0-5.22-5.22h0a5.22,5.22,0,0,0-5.21,5.22V47a5.21,5.21,0,0,0,5.21,5.21h0A5.22,5.22,0,0,0,228.63,47V33.22l13,17.05a4.83,4.83,0,0,0,3.85,1.9h0a4.84,4.84,0,0,0,3.84-7.77L237.73,29.19a.69.69,0,0,1,0-.84l11.59-15.21A4.84,4.84,0,0,0,245.48,5.36Z"/><path class="cls-1" d="M81.89,52.08a23.31,23.31,0,1,1,15.17-41,4.81,4.81,0,0,1-6.26,7.31,13.7,13.7,0,1,0-.1,20.87,4.82,4.82,0,0,1,6.21,7.37A23.35,23.35,0,0,1,81.89,52.08Z"/><path class="cls-1" d="M193.88,52.08a23.31,23.31,0,1,1,15.17-41,4.82,4.82,0,0,1-6.27,7.31,13.69,13.69,0,1,0-.09,20.87,4.82,4.82,0,0,1,6.2,7.37A23.32,23.32,0,0,1,193.88,52.08Z"/><path class="cls-1" d="M288.44,31.27a14,14,0,0,0-4.5-4.19,22.55,22.55,0,0,0-5.82-2.35q-3.14-.8-5.81-1.43A41.83,41.83,0,0,1,267.83,22l-.1,0a2.77,2.77,0,0,1-.9-.47,2.09,2.09,0,0,1-.57-.58,3.22,3.22,0,0,1-.63-1.92c0-3.5,3.46-4.7,8.34-4.31a32.65,32.65,0,0,1,6.34,1.23,4.37,4.37,0,0,0,5.4-3.23h0a4.79,4.79,0,0,0-2.77-5.77l-.41-.14a27.28,27.28,0,0,0-8.17-1.34,32.15,32.15,0,0,0-5.47.52,8.47,8.47,0,0,0-.93.21h0a3.61,3.61,0,0,0-.57.15h0l-.86.21a16.24,16.24,0,0,0-5.13,2.51,12.55,12.55,0,0,0-3.65,4.28,14.15,14.15,0,0,0-1.35,6.48,11.86,11.86,0,0,0,1.84,6.81,13.26,13.26,0,0,0,4.5,4.06,22.6,22.6,0,0,0,5.84,2.22c2.08.49,8.09,1.37,10.31,2.27a3.19,3.19,0,0,1,1.8,2.87,2.41,2.41,0,0,1-.74,1.8A5.72,5.72,0,0,1,278.17,41a13.79,13.79,0,0,1-6,.61,26.78,26.78,0,0,1-6.89-1.78,14.17,14.17,0,0,1-1.43-.77,4.3,4.3,0,0,0-6.06,2l-.26.54a4.87,4.87,0,0,0,1.74,6.27,32.06,32.06,0,0,0,16.51,4.2,15.56,15.56,0,0,0,1.78-.18l.5-.07h0a15.86,15.86,0,0,0,2.76-.78,15.12,15.12,0,0,0,8.2-7.32,11.91,11.91,0,0,0,1.28-5.67A11.76,11.76,0,0,0,288.44,31.27Z"/><path class="cls-1" d="M39.35,34.39H35V9.3C35,4.75,32.65,2,28.66,2c-2.46,0-5,1.69-7.45,5l-19,24.83A9.16,9.16,0,0,0,0,37.34c0,2.95,2.53,6,6.75,6H26.09v4.11a4.54,4.54,0,0,0,4.51,4.66A4.62,4.62,0,0,0,35,47.45V43.34h4.31a4.69,4.69,0,0,0,4.51-4.51A4.33,4.33,0,0,0,39.35,34.39Zm-28.41,0L26.09,14.72V34.39Z"/><path class="cls-1" d="M290.29,1.05h-1.22a.52.52,0,0,1-.53-.51.5.5,0,0,1,.53-.51h3.49a.5.5,0,0,1,.53.51.53.53,0,0,1-.53.51h-1.22V4.91a.53.53,0,0,1-.51.54.55.55,0,0,1-.54-.54Z"/><path class="cls-1" d="M299.43,5.46a.49.49,0,0,1-.51-.43l-.44-3.84c0-.06-.09-.06-.1,0l-.72,3.45a.88.88,0,0,1-1.74,0l-.72-3.45s0-.05-.05-.05,0,0,0,.06L294.67,5a.5.5,0,0,1-.52.42.53.53,0,0,1-.55-.56.31.31,0,0,1,0-.11l.54-3.87c.1-.61.45-.92.94-.92a1,1,0,0,1,1,.89l.66,3.33s0,0,.06,0a0,0,0,0,0,.05,0l.66-3.33a1,1,0,0,1,1-.89c.49,0,.84.31.94.92L300,4.78a.34.34,0,0,1,0,.11A.52.52,0,0,1,299.43,5.46Z"/></g></g></svg>